<svg xmlns="http://www.w3.org/2000/svg" width="512" height="512" viewBox="0 0 512 512" version="1.1">
	<path d="M 206 86.067 C 202.532 87.626, 184.109 105.453, 125.675 163.795 C 83.971 205.433, 48.478 241.462, 46.801 243.860 C 42.831 249.538, 41.833 258.653, 44.531 264.588 C 47.271 270.614, 198.877 422.244, 205.446 425.527 C 223.399 434.502, 242.186 416.346, 233.931 398 C 232.385 394.563, 218.155 379.735, 173.715 335.250 L 115.523 277 284.604 277 L 453.685 277 458.093 274.673 C 464.862 271.099, 468.361 265.390, 468.797 257.207 C 469.239 248.907, 466.654 243.361, 460.150 238.648 L 455.803 235.500 285.687 235.241 L 115.572 234.983 174.617 175.741 C 225.350 124.839, 233.826 115.921, 234.831 112.384 C 240.130 93.731, 223.242 78.315, 206 86.067" stroke="none" fill="#000000" fill-rule="evenodd"/>
</svg>