<svg xmlns="http://www.w3.org/2000/svg" width="247" height="247" viewBox="0 0 247 247" version="1.1">
	<path d="M 63.500 20.649 C 45.068 23.602, 27.507 33.859, 17.107 47.746 C -2.246 73.588, -2.713 103.443, 15.807 130.716 C 20.578 137.741, 32.399 150.933, 49.694 168.531 C 78.464 197.806, 118.130 234.743, 121.781 235.660 C 123.112 235.994, 125.480 235.645, 127.043 234.884 C 135.266 230.880, 215.622 152.047, 227.327 136.500 C 239.539 120.281, 244.973 106.111, 244.968 90.500 C 244.959 61.559, 227.024 35.561, 199.768 24.978 C 175.896 15.708, 148.563 20.668, 128.945 37.829 C 123.374 42.703, 124.394 42.870, 116.054 35.716 C 110.599 31.037, 97.570 24.548, 89.500 22.490 C 83.162 20.874, 68.551 19.839, 63.500 20.649 M 66 38.142 C 45.285 40.244, 27.639 55.285, 21.312 76.230 C 18.901 84.214, 19.140 97.086, 21.848 105.125 C 26.521 118.996, 35.017 129.737, 65.650 160.500 C 87.461 182.403, 121.413 214.333, 123.375 214.786 C 126.356 215.475, 199.098 144.479, 212.171 128.121 C 226.511 110.177, 230.627 95.769, 226.460 78.093 C 222.073 59.483, 206.188 43.543, 187.565 39.065 C 181.403 37.583, 168.932 37.559, 162.429 39.016 C 151.323 41.505, 138.884 50.107, 130.945 60.789 C 129.185 63.157, 127.439 64.246, 124.712 64.676 C 121.014 65.260, 120.744 65.082, 113.365 57.179 C 109.207 52.727, 103.712 47.747, 101.153 46.113 C 90.765 39.481, 79.027 36.820, 66 38.142" stroke="none" fill="#000000" fill-rule="evenodd"/>
</svg>