<svg xmlns="http://www.w3.org/2000/svg" width="247" height="247" viewBox="0 0 247 247" version="1.1">
	<path d="M 51.362 23.981 C 27.771 30.166, 9.852 48.806, 3.990 73.260 C 0.592 87.433, 1.988 100.126, 8.442 113.715 C 13.082 123.485, 16.578 128.388, 28.604 141.983 C 45.025 160.548, 120.665 234, 123.362 234 C 125.487 234, 194.913 167.317, 211.337 149.500 C 236.264 122.459, 244 107.763, 244 87.450 C 244 50.939, 214.840 22, 178.050 22 C 167.368 22, 159.965 23.822, 149 29.150 C 142.120 32.493, 138.872 34.921, 131.957 41.890 L 123.415 50.500 114.865 41.934 C 105.296 32.346, 94.848 26.317, 83 23.549 C 74.131 21.476, 60.191 21.667, 51.362 23.981" stroke="none" fill="#000000" fill-rule="evenodd"/>
</svg>