<svg xmlns="http://www.w3.org/2000/svg" width="640" height="640" viewBox="0 0 640 640" version="1.1">
	<path d="M 70.618 121.107 C 64.406 122.574, 55.331 127.918, 50.912 132.711 C 48.667 135.147, 45.405 140.147, 43.665 143.820 C 40.799 149.869, 40.500 151.402, 40.500 160.052 C 40.500 169.067, 40.710 170.028, 44.235 177.160 C 48.733 186.262, 54.523 191.931, 63.820 196.335 L 70.500 199.500 320.052 199.500 L 569.604 199.500 577.160 195.765 C 586.262 191.267, 591.931 185.477, 596.335 176.180 C 599.201 170.131, 599.500 168.598, 599.500 159.948 C 599.500 150.933, 599.290 149.972, 595.765 142.840 C 591.267 133.738, 585.477 128.069, 576.180 123.665 L 569.500 120.500 322 120.345 C 174.949 120.254, 72.924 120.563, 70.618 121.107 M 70.618 281.107 C 64.406 282.574, 55.331 287.918, 50.912 292.711 C 48.667 295.147, 45.405 300.147, 43.665 303.820 C 40.799 309.869, 40.500 311.402, 40.500 320.052 C 40.500 329.067, 40.710 330.028, 44.235 337.160 C 48.733 346.262, 54.523 351.931, 63.820 356.335 L 70.500 359.500 320.052 359.500 L 569.604 359.500 577.160 355.765 C 586.262 351.267, 591.931 345.477, 596.335 336.180 C 599.201 330.131, 599.500 328.598, 599.500 319.948 C 599.500 310.933, 599.290 309.972, 595.765 302.840 C 591.267 293.738, 585.477 288.069, 576.180 283.665 L 569.500 280.500 322 280.345 C 174.949 280.254, 72.924 280.563, 70.618 281.107 M 70.618 441.107 C 64.406 442.574, 55.331 447.918, 50.912 452.711 C 48.667 455.147, 45.405 460.147, 43.665 463.820 C 40.799 469.869, 40.500 471.402, 40.500 480.052 C 40.500 489.067, 40.710 490.028, 44.235 497.160 C 48.733 506.262, 54.523 511.931, 63.820 516.335 L 70.500 519.500 320.052 519.500 L 569.604 519.500 577.160 515.765 C 586.262 511.267, 591.931 505.477, 596.335 496.180 C 599.201 490.131, 599.500 488.598, 599.500 479.948 C 599.500 470.933, 599.290 469.972, 595.765 462.840 C 591.267 453.738, 585.477 448.069, 576.180 443.665 L 569.500 440.500 322 440.345 C 174.949 440.254, 72.924 440.563, 70.618 441.107" stroke="none" fill="#000000" fill-rule="evenodd"/>
</svg>