<svg xmlns="http://www.w3.org/2000/svg" width="300" height="300" viewBox="0 0 300 300" version="1.1">
	<path d="M 147.303 37.221 C 140.838 44.237, 119.489 82.330, 120.193 85.592 C 120.618 87.558, 130.256 98.875, 131.565 98.944 C 132.150 98.975, 133.424 97.313, 134.394 95.250 C 137.190 89.309, 144.676 77.603, 147.052 75.458 L 149.220 73.500 152.892 77.633 C 154.911 79.906, 158.799 85.857, 161.532 90.859 C 164.264 95.860, 166.725 99.939, 167 99.924 C 167.580 99.891, 177.108 88.481, 178.308 86.383 C 179.636 84.061, 160.501 49.068, 151.952 38.185 L 149.404 34.942 147.303 37.221 M 48.289 84.250 C 49.124 108.156, 54.393 124.058, 66.637 139.627 C 69.610 143.407, 73.177 147.963, 74.564 149.750 C 75.951 151.537, 77.404 153, 77.793 153 C 78.182 153, 78.500 148.388, 78.500 142.750 C 78.500 132.194, 79.323 127, 80.995 127 C 81.522 127, 84.326 129.267, 87.226 132.039 C 91.841 136.448, 96.347 139.019, 97.448 137.870 C 97.643 137.667, 97.196 134.125, 96.454 130 C 95.712 125.875, 95.082 117.612, 95.053 111.639 L 95 100.778 90.937 95.925 C 86.251 90.328, 76.839 82.612, 69.234 78.134 C 63.733 74.894, 50.529 69, 48.774 69 C 48.106 69, 47.939 74.232, 48.289 84.250 M 237.500 73.857 C 226.172 79.357, 217.256 85.638, 208.951 93.969 L 203.257 99.681 202.632 114.591 C 202.288 122.791, 201.733 131.412, 201.398 133.750 C 200.852 137.565, 201 138, 202.838 138 C 203.964 138, 207.559 135.525, 210.827 132.500 C 214.094 129.475, 217.211 127, 217.753 127 C 219.167 127, 219.976 133.092, 219.989 143.833 C 219.995 148.967, 220.393 153.017, 220.874 152.833 C 222.145 152.348, 233.466 137.878, 237.370 131.748 C 246.260 117.787, 251.501 96.831, 250.811 78.011 C 250.569 71.416, 250.165 69.464, 249 69.262 C 248.175 69.119, 243 71.187, 237.500 73.857 M 104.620 91.070 C 100.395 109.780, 100.142 126.978, 103.943 137.097 C 105.987 142.537, 113.448 151.886, 114.726 150.608 C 115.104 150.230, 115.731 146.595, 116.119 142.531 C 116.862 134.747, 119.815 126.891, 125.714 117 C 129.537 110.590, 129.770 107.982, 126.927 103.382 C 124.914 100.125, 108.245 84, 106.891 84 C 106.520 84, 105.499 87.181, 104.620 91.070 M 187.373 87.110 C 175.335 97.258, 169 104.693, 169 108.673 C 169 109.978, 171.015 114.523, 173.478 118.773 C 178.971 128.253, 181.906 136.526, 182.692 144.750 C 183.020 148.188, 183.636 151, 184.060 151 C 184.483 151, 186.678 148.901, 188.936 146.335 C 195.450 138.935, 197.384 131.078, 196.734 114.652 C 196.246 102.306, 193.766 86.526, 192.024 84.673 C 191.596 84.218, 189.503 85.315, 187.373 87.110 M 140.139 105.972 C 129.695 124.279, 123.516 138.370, 121.925 147.511 C 119.322 162.454, 128.097 174.321, 145.171 178.949 C 149.354 180.083, 150.527 179.988, 156.393 178.036 C 164.154 175.453, 171.801 169.108, 174.921 162.662 C 177.251 157.849, 177.653 149.926, 175.893 143.500 C 173.929 136.328, 166.897 120.715, 161.030 110.500 C 157.871 105, 154.089 98.138, 152.626 95.250 C 151.163 92.362, 149.805 90, 149.609 90 C 149.412 90, 145.151 97.187, 140.139 105.972 M 208.458 142.250 C 204.913 146.486, 198.111 151.354, 189.932 155.507 C 183.979 158.530, 183.245 159.247, 182.095 163.171 C 179.246 172.896, 173.119 179.815, 163.067 184.659 L 158.501 186.860 161.501 188.025 C 166.262 189.875, 175.057 190.338, 181.205 189.061 C 187.508 187.753, 196.635 182.337, 202.209 176.597 C 207.948 170.687, 212.164 159.350, 212.750 148.250 C 213.293 137.965, 212.718 137.160, 208.458 142.250 M 85.331 141.579 C 84.065 144.880, 86.046 156.673, 89.182 164.491 C 93.117 174.304, 99.678 181.239, 109.690 186.168 C 115.799 189.176, 117.287 189.495, 124.979 189.448 C 129.666 189.419, 134.850 188.822, 136.500 188.120 L 139.500 186.845 136.132 185.421 C 126.759 181.459, 119.569 173.673, 116.435 164.092 C 114.834 159.196, 114.431 158.805, 106.992 154.935 C 102.719 152.712, 96.514 148.442, 93.204 145.446 C 89.894 142.451, 86.905 140, 86.561 140 C 86.218 140, 85.665 140.710, 85.331 141.579 M 26.590 143.855 C 25.369 145.829, 38.048 163.075, 48.484 173.636 C 59.076 184.355, 70.293 192.409, 79.793 196.115 C 84.638 198.006, 87.538 198.354, 99 198.421 C 118.173 198.533, 118.577 198.122, 106.064 191.244 C 93.186 184.167, 84.492 175.884, 76.942 163.500 C 72.344 155.958, 70.568 153.968, 65.977 151.218 C 62.965 149.412, 57.575 147.024, 54 145.910 C 46.266 143.499, 27.671 142.105, 26.590 143.855 M 251.347 144.095 C 244.442 145.248, 236.260 148.393, 230.867 151.965 C 227.741 154.035, 225.057 157.227, 221.711 162.851 C 213.355 176.899, 205.057 184.592, 189.529 192.685 C 179.449 197.938, 180.414 198.524, 199 198.435 C 210.177 198.382, 213.499 198.004, 218.303 196.242 C 226.595 193.201, 239.343 184.383, 248.560 175.311 C 256.508 167.488, 272.923 146.603, 272.973 144.250 C 273.005 142.787, 259.743 142.692, 251.347 144.095 M 33.075 189.087 C 20.993 191.458, 3 200.288, 3 203.848 C 3 205.546, 15.887 211.691, 24.709 214.198 C 34.758 217.054, 52.264 217.272, 62 214.662 C 68.748 212.853, 82 207.168, 82 206.083 C 82 205.741, 77.808 203.539, 72.685 201.189 C 67.541 198.829, 61.088 194.920, 58.273 192.458 L 53.177 188 45.339 188.110 C 41.027 188.170, 35.509 188.610, 33.075 189.087 M 240.946 191.592 C 238.913 193.711, 233.023 197.366, 226.584 200.506 L 215.667 205.827 219.084 207.921 C 224.035 210.957, 232.341 213.908, 240.966 215.695 C 250.283 217.626, 264.647 216.964, 274 214.173 C 282.453 211.651, 296 205.414, 296 204.044 C 296 202.727, 286.528 196.589, 279.605 193.420 C 272.587 190.207, 261.401 188, 252.131 188 C 244.555 188, 244.320 188.076, 240.946 191.592 M 144.748 192.427 C 139.336 194.358, 134.002 198.750, 132.394 202.600 C 130.602 206.888, 130.635 216.827, 132.466 224.592 C 134.769 234.356, 147.100 261.996, 149.155 261.999 C 150.994 262.002, 162.290 238.167, 165.580 227.340 C 166.641 223.851, 167.384 218.078, 167.428 213 C 167.522 201.952, 165.543 198.427, 156.792 194.054 C 149.882 190.601, 149.869 190.599, 144.748 192.427 M 117.671 203.113 C 111.983 204.994, 105.624 206.261, 99.799 206.675 C 91.067 207.295, 90.596 207.454, 86.128 211.317 C 76.711 219.456, 74.459 222.693, 71.105 232.915 C 67.855 242.819, 68.022 243.387, 73.947 242.601 C 82.467 241.471, 94.253 238.109, 100.634 234.989 C 111.335 229.755, 124.119 214.042, 126.455 203.250 C 126.842 201.463, 127.011 200.044, 126.829 200.097 C 126.648 200.150, 122.527 201.508, 117.671 203.113 M 171.582 200.868 C 170.761 202.196, 175.094 212.607, 178.573 217.664 C 183.110 224.260, 191.481 232.184, 196.751 234.873 C 205.718 239.448, 230 244.824, 230 242.235 C 230 240.293, 225.770 227.491, 223.939 223.892 C 222.930 221.907, 218.876 217.295, 214.930 213.642 C 208.241 207.449, 207.444 206.999, 203.128 206.992 C 196.293 206.981, 187.043 205.288, 179.058 202.586 C 175.174 201.272, 171.810 200.499, 171.582 200.868" stroke="none" fill="#000000" fill-rule="evenodd"/>
</svg>